<?xml version="1.0" encoding="UTF-8"?>
<!DOCTYPE svg PUBLIC "-//W3C//DTD SVG 1.1//EN" "http://www.w3.org/Graphics/SVG/1.1/DTD/svg11.dtd">
<!-- Creator: CorelDRAW -->
<svg xmlns="http://www.w3.org/2000/svg" xml:space="preserve" width="4.80951in" height="3.76212in" version="1.1" style="shape-rendering:geometricPrecision; text-rendering:geometricPrecision; image-rendering:optimizeQuality; fill-rule:evenodd; clip-rule:evenodd"
viewBox="0 0 5671.88 4436.68"
 xmlns:xlink="http://www.w3.org/1999/xlink"
 xmlns:xodm="http://www.corel.com/coreldraw/odm/2003">
 <defs>
  <style type="text/css">
   <![CDATA[
    .fil1 {fill:black}
    .fil3 {fill:#75190A}
    .fil2 {fill:#A54D35}
    .fil0 {fill:#EE692F}
   ]]>
  </style>
 </defs>
 <g id="Layer_x0020_1">
  <metadata id="CorelCorpID_0Corel-Layer"/>
  <g id="_2134528578832">
   <path class="fil0" d="M2349.21 2377.52c0.45,-0.51 1.12,-2.02 1.31,-1.56 0.51,1.19 2.08,-2.41 2.67,-3.08l32.13 -39.59c12.73,-16.08 22.02,-29.47 34.36,-45.94l53.33 -67.14c6.15,-7.53 11.34,-15.12 17.17,-22.98 15.69,-21.16 70.43,-65.6 60.92,-95.86 -6.64,-21.13 -16.23,-36.65 -23,-57.54 -21.55,-66.51 -19.93,-151.24 -2.06,-212.26 17.02,-58.09 45.64,-112.39 79.66,-161.26l33.9 -46.41c12.37,-15.01 23.63,-29.36 37.35,-42.96l38.68 -41.64c7.19,-7.47 12.74,-12.67 20.09,-20.06l127.71 -113.22c40.29,-35.87 124.89,-93.99 149.62,-131.46 30.3,-45.89 8.46,-152.58 18.09,-222.82 13.85,-101.05 -38.08,-90.64 75.88,-165.04 9.19,-6 15.67,-8.55 24.45,-15.71l43.19 -37.12c7.34,-7.41 12.67,-12.71 20.06,-20.1 26.71,-26.71 53.21,-54.73 71.49,-89.12 31.21,-58.71 52.44,-106.12 62.91,-178.01 18.84,-129.37 -16.29,-230.87 -71.77,-321.76 -21.89,-35.86 -52,-69.76 -84.01,-96.68 -62.93,-52.9 -113.41,-82.19 -193.37,-107.79 -105.28,-33.72 -248.02,-24.87 -345.81,20.68 -35.63,16.6 -68.7,37.64 -98.86,61.76l-43.39 36.92c-40.59,40.55 -73.4,92.39 -95.57,145.35 -50.37,120.33 -52.92,207.63 -12.63,329.7 27.94,84.63 42.88,52.66 114.13,4.09 13.74,-9.37 24.61,-17.36 39.01,-26.96l115.32 -82.59c32.98,-25.88 16.66,-63.47 31.83,-102.97 10.29,-26.79 39.04,-57.13 61.2,-70.74 89.04,-54.68 229.01,-15.97 259.79,89.95 20.57,70.8 3.86,147.8 -53.73,193.51 -99.11,78.68 -154.5,28.18 -206.29,54.73 -33.28,17.07 -43.1,39.14 -42.91,89.02 0.15,38.75 4.39,194.49 -2.65,229.65 -4.78,23.88 -35.85,34.89 -55.66,44.73l-91.8 43.01c-100.8,50.43 -201.19,103.74 -286.52,178.13l-51.68 45.84c-36.46,33.92 -66.31,64.12 -99.07,101.7 -6.14,7.04 -9.71,11.51 -15.64,18.78 -30.69,37.56 -56.46,76.63 -83.66,117.11 -77.32,115.08 -120.02,249.81 -147.31,386.15 -19.69,98.38 -20.48,208.05 -4.01,306.57l22.19 109.74c4.87,19.34 11.67,36.15 15.53,53.67 18.33,-5.98 201.56,-2.48 238.08,-2.31 25.66,0.12 158.73,2.74 178.2,-3.27 11.93,-3.68 24.83,-16.7 30.37,-27.76 -1.68,10.6 -1.72,2.26 0.79,12.91z"/>
   <path class="fil1" d="M2770.91 2661.44c18.2,0 23.95,-2.87 43.02,-2.87 107.53,0 85.85,-6.58 90.17,27.44l30.31 245.02 -192.19 0c0,-34.26 28.69,-220.45 28.69,-269.58zm28.68 -249.51l51.59 -3.47c11.26,-0.28 9.1,2.56 20.13,3.47 0,19.51 4.46,36.89 5.84,57.26 1.1,16.22 5.29,41.78 5.64,57.46l-88.92 0c0,-22.68 1.94,-39.14 2.88,-57.35 1.08,-20.95 2.86,-38.41 2.86,-57.37zm14.34 -106.11c0,-67.75 7.91,-65.97 31.56,-65.97 18.01,0 5.14,58.25 14.34,77.43l-45.9 0 0 -11.47zm-857.66 811.62c27.73,0 55.47,0.07 83.2,-0 32.88,-0.08 42.92,2.92 77.44,2.87 58.1,-0.07 109.28,-2.87 169.23,-2.87l381.5 2.87c113.78,0 227.56,0 341.34,0l507.71 -2.87c60,0 110.2,2.55 169.25,2.88 39.74,0.22 52.55,10.03 -18.86,-84.41l-320.84 -450.69c-12.61,-17.54 -24.64,-32.57 -36.08,-49.97l-69.99 -99.22c-24.16,-34.99 -47.35,-66.72 -70.56,-101.53 -41.15,-61.72 -79.68,-117.61 -124.89,-176.26 -6.37,-8.27 -13.79,-15.88 -27.14,-15.88l-352.82 0c-8.73,0 -14.86,1.57 -20.74,5.07 -10.94,6.5 -27.93,31.16 -35.46,41.98l-216.74 308.13c-7.62,10.27 -13.35,19.68 -20.77,30.85l-152.19 217.8c-47.73,71.88 -125.22,172.35 -176.53,245.08 -14.85,21.05 -28.28,40.63 -44.28,61.84 -7.95,10.54 -14.62,19.95 -21.71,29.92 -5.94,8.36 -17.64,23.89 -20.09,34.4z"/>
   <path class="fil1" d="M3961.3 3559.1c0,16.37 -2.87,19.84 -2.87,37.29l0 771.47c0,15.92 0.12,51.62 14.34,51.62l134.82 0c24.54,0 26,-26.53 25.88,-51.56 -0.39,-81.79 4.21,-516.99 -2.93,-550.71l8.6 0 52.04 154.46c4.26,11.34 9.21,25.86 13.93,37.7 4.93,12.35 8.27,24.97 13.51,38.11 5.2,13.01 8.33,25.19 13.09,38.54 4.84,13.58 7.88,25.34 12.48,39.15l66.66 191.47c2.51,7.07 3.73,13.16 6.13,19.68l19.63 57.8c2.56,7.15 4.98,12.19 8.82,16.99 4.38,5.48 7.77,8.38 17.44,8.38l117.61 0c15.92,0 23.78,-10.57 29.68,-21.95 5.49,-10.58 10.97,-24.66 15.15,-36.47l28.54 -77.58c10.1,-26.07 18.19,-54.04 26.66,-79.46 9.04,-27.12 17.51,-52.45 26.55,-79.57l81.99 -236.36c8.54,-21.39 17.75,-67.99 29.52,-76.6 6.62,13.79 5.72,209.94 1.66,236.83 -4.72,31.18 -1.66,277.48 -1.66,333.89 0,15.92 2.86,17.01 2.86,31.55 10.27,2.39 13.48,5.74 25.82,5.74 32.85,0 110.31,3.51 137.68,-2.87 11.06,-47.46 5.74,-252.15 5.74,-326.95 0,-32.06 -2.95,-81.46 0.42,-111.43 6.78,-60.39 2.45,-247.23 2.45,-330.23 0,-19.79 -0,-36.79 -2.08,-52.41 -2.85,-21.42 7,-39.36 -18,-39.36l-209.39 0c-17.3,0 -21.05,14.35 -25.44,26.19l-39.46 115.42c-35.62,106.99 -84.83,235.04 -124.09,343.4l-34.77 94.29c-3.51,7.68 -6.41,10.73 -8.59,20.09 -10.07,-2.69 -8.2,-2.7 -12.03,-13.79l-77.23 -212.44c-8.97,-24.88 -18.39,-52.96 -28.32,-77.8 -26.54,-66.43 -63.39,-162.47 -86.41,-231.94 -6.16,-18.59 -18.96,-63.42 -42.7,-63.42 -70.59,0 -155.17,-4.31 -223.74,2.86z"/>
   <path class="fil1" d="M2463.98 4149.89c-12.41,-3.32 -9.33,-5.31 -15.49,-30.4l-30.74 -115.53c-14.41,-48.57 -25.53,-104.4 -39.2,-152.97 -7.16,-25.44 -13.97,-49.59 -20.15,-74.49 -6.81,-27.4 -11.55,-51.78 -18.3,-79.21l-30.61 -115.66c-3.98,-12.2 -7.36,-25.41 -23.35,-25.41l-152.02 0c-21.34,0 -21.76,28.59 -31.9,62.75l-61.55 228.12c-7.31,25.73 -12.94,50.14 -18.64,76.01 -14.16,64.32 -48.57,168.16 -62.89,229.64l-8.61 0c-1.64,-19.7 -68.49,-291.16 -72.29,-306.29 -6.12,-24.37 -13.13,-51.07 -18.91,-75.74 -13.2,-56.32 -29.95,-134.18 -46.79,-188.39 -3.99,-12.85 -5.74,-26.11 -22.65,-26.11 -25.41,0 -154.9,-7.6 -154.9,14.34 0,24.06 7.09,36.02 12.11,56.72l146.81 581.67c11.03,44.33 42.52,176.36 59.09,207.65 18.2,0 23.95,2.87 43.03,2.87l134.82 0c22.88,0 52.68,-138.64 60.96,-174.22l119.76 -407.97c11.71,50.26 28.45,99.08 40.73,148.55l58.48 225.46c6.56,26.06 14.43,49.52 20.66,73.99 6.48,25.47 13.84,50.09 20.06,74.58 3.37,13.26 6.6,22.04 10.95,34.94 4.52,13.42 7.31,24.67 24.08,24.67l149.16 0c27.73,0 38.26,-58.22 46.9,-90.77 5.37,-20.24 8.62,-35.43 13.91,-54.93 24.32,-89.72 52.18,-179.25 74.59,-269.57 18.05,-72.73 39.53,-142.01 57.55,-217.78 4.16,-17.51 9.39,-35.13 14.79,-54.04 3.05,-10.66 5.23,-15.47 8.01,-26.4 2.05,-8.04 4.15,-17.79 6.97,-27.44 11.11,-37.99 21.46,-77.64 18.22,-116.57 -50.49,-11.76 -51.17,-10.21 -103.41,-5.89 -91.76,7.59 -52.95,-36.81 -118.61,225.57l-77.98 323.54c-4.13,16.41 -9.14,29.63 -12.66,44.71z"/>
   <path class="fil0" d="M3327.38 2381.17c12.09,1.33 6.62,3.25 17.55,7.69 5.69,2.32 18.07,5.15 23.08,5.8l168.76 0.68c36.98,0.03 201.94,5.85 222.16,-2.01 4.09,-3.45 7.97,-9.88 10.69,-15.65 5.15,-10.91 1.17,-11.66 13.9,-38.01 3.74,-7.74 5.66,-11.32 8.54,-17.67 3.71,-20.8 8.06,-39.82 12.22,-61.33 3.98,-20.53 5.71,-41.11 9.1,-65.47 17.54,-126.27 -10.62,-329.82 -61.52,-445.72 -3.71,-8.42 -7.65,-17.94 -10.99,-26.3 -30.4,-76.16 -103.71,-188.92 -157.51,-249.76 -17.4,-19.68 -55.39,-58.48 -75.33,-71.1 -41.42,-26.22 -49.48,64.95 -52.8,84.91 -11.33,68.14 -43.38,259.38 -58.66,311.31 -6.17,20.96 -10.14,34.26 -18.35,53.35 -4.48,10.41 -6.37,15.83 -11.65,25.64 -2.57,4.76 -3.72,6.5 -6.16,11.05 -23.41,43.57 -65.28,101.95 -101.47,136.58l-83.75 70.87c-12.68,9.75 -27.36,26.38 -39.99,34.84 23.06,43.58 42.24,59.56 72.93,97.56l22.47 27.89c17.47,19.55 30.56,41.23 47.36,61.63l49.43 63.21z"/>
   <path class="fil1" d="M1158.85 4278.95c-74.74,0 -145.59,-18.27 -190.57,-76.18 -24.33,-31.32 -33.88,-42.17 -47.9,-84.04 -27.55,-82.29 -24.26,-164.49 -3.1,-247.64 8.36,-32.84 23.98,-66.37 41.93,-89.99 53.77,-70.74 108.56,-87.2 202.5,-87.2 70.13,0 144.63,32.38 182.8,83.95 34.39,46.45 44.55,87.73 52.93,144.97 1.5,10.28 5.48,52.5 4.12,62.28 -5.41,38.81 -0.48,68.49 -15.05,117.1 -10.4,34.68 -24.57,65.66 -44.74,90.06 -29.88,36.15 -73.97,67.05 -122.05,78.72 -14.02,3.4 -42.85,7.96 -60.88,7.96zm-436 -304c0,109.18 13.65,187.13 65.43,272.99 6.97,11.57 12.35,20.82 20.17,31.46 3.8,5.17 7.09,9.49 11.25,14.56 4.8,5.83 7.67,10.31 12.82,15.86 90.54,97.71 193.6,126.87 332.06,126.87 88.13,0 206.11,-33.97 271.78,-95.36 10.28,-9.61 19.78,-15.34 28.56,-25.93 16.12,-19.43 32.83,-38.22 45.84,-60.28 61.71,-104.57 69.73,-174.15 69.73,-297.37 0,-109.55 -35.37,-223.31 -111.15,-298.98 -76.72,-76.6 -173.09,-119.73 -290.43,-119.73 -130.39,0 -227.4,9.9 -328.04,102.2 -89.57,82.14 -128.04,211.12 -128.04,333.72z"/>
   <path class="fil1" d="M5048.44 3593.51l0 785.81c0,15.32 2.9,25.09 5.74,37.29 37.92,8.83 88.81,-2.15 131.16,3.65 39.06,5.35 468.14,1.99 472.65,0.66 10.99,-3.23 5.72,0.59 9.43,-7.79 4.02,-9.07 8.56,-120.24 -2.27,-142.79 -53.93,0 -97.92,-2.87 -152.02,-2.87l-292.58 0 0 -197.88c0,-13.56 22.28,-8.62 45.9,-8.61 43.6,0.01 326.87,3.15 339.63,-1.71 13.85,-5.28 13.19,-28.95 13.19,-44.17 0,-26.79 3.58,-86.7 -5.74,-106.11 -31.46,-7.33 -335.19,-2.87 -392.97,-2.87l0 -195.02c47.35,0 424.29,2.44 437.44,-1.42 10.99,-3.23 5.72,0.59 9.43,-7.79 5.81,-13.12 3.47,-117.26 3.47,-137.05 0,-6.61 -1.99,-8.6 -8.6,-8.6l-576.55 0c-33.86,0 -37.29,3.43 -37.29,37.28z"/>
   <path class="fil1" d="M-0 3567.7l0 114.72c0,24.13 10.66,28.67 34.42,28.67l223.73 0 0 671.09c0,16.07 1.87,29.59 15.45,33.31 21.13,5.78 105.83,3.98 130.84,3.98 35.71,0 28.7,-29.11 28.69,-63.1l0 -464.6c0,-41.29 -6.61,-154.95 5.74,-180.68 68.85,0 137.75,-0.26 206.59,0.07 60.89,0.29 51.94,-18.8 48.79,-126.35 -0.41,-13.98 -2.68,-13.29 -2.96,-25.72 -50.91,-11.85 -271.66,-2.86 -329.87,-2.86 -58.02,0 -235.65,-6.86 -293,-0.42 -18.75,2.1 -68.42,-7.51 -68.42,11.89z"/>
   <path class="fil1" d="M2839.75 3559.1c-10.52,21.92 -7.33,117.68 0,149.14 8.97,0.74 10.19,2.86 20.08,2.86l229.48 0c0,61.44 -3.5,555.09 1.66,589.14 5.49,36.26 -3.46,81.15 4.08,113.51 22.49,10.79 113.63,5.74 143.42,5.74 23,0 25.81,-9.12 25.81,-31.55l0 -676.83 229.48 0c32.22,0 34.42,-20.09 34.42,-54.49 0,-9.74 -2.89,-90.79 -4.08,-93.43 -4.14,-9.26 -25.7,-9.91 -38.85,-9.91l-252.52 0.1c-35.5,0 -60.65,2.89 -94.66,2.87 -60.11,-0.04 -268.16,-4.16 -298.32,2.86z"/>
   <path class="fil1" d="M3619.96 3570.57c0,109.37 -4.03,780.63 2.8,831.76 1.94,14.51 9.52,17.14 25.88,17.14l123.34 0c21.95,0 23.18,-17.68 23.02,-40.08 -0.16,-21.9 -0.46,-44.28 -0.19,-66.15 0.18,-14.79 2.3,-15.8 2.99,-28.55l-0.01 -702.66c0,-19.87 -5.94,-25.81 -25.81,-25.81l-126.21 0c-11.63,0 -25.81,3.09 -25.81,14.34z"/>
   <path class="fil2" d="M1901.77 2397.95l2.86 7.27 9.15 0.14c-3.63,12.92 10.93,27.11 17.24,34.69 6.49,-4.88 -0.56,0.91 -0.58,2.06 -0.15,10.22 5.37,17.01 11.38,26.85 35.68,58.47 1.06,45.04 38.64,87.89l5.79 6.11c12.89,12.14 0.76,3.74 10.06,23.3l32.68 51.02c26.99,39.49 46.7,80.34 73.44,46.9l46.09 -57.34c38.22,-47.85 87.21,-107.78 120.54,-157.41 11.2,-16.68 48.44,-71.41 64.62,-76.39l-0.38 1.69c8.19,-4.36 2.98,-0.93 8.68,-7.32 3.62,-4.06 4.71,-6.08 7.23,-9.88 -2.52,-10.66 -2.47,-2.31 -0.79,-12.91 -5.55,11.06 -18.45,24.08 -30.37,27.76 -19.47,6.01 -152.54,3.39 -178.2,3.27 -36.52,-0.17 -219.75,-3.66 -238.08,2.31z"/>
   <path class="fil2" d="M3771.99 2396.95c3.79,-11.44 7.13,-24.83 10.34,-37.77 3.15,-12.68 7.61,-24.85 9.74,-37.17 -2.89,6.35 -4.8,9.93 -8.54,17.67 -12.72,26.34 -8.75,27.1 -13.9,38.01 -2.72,5.76 -6.6,12.2 -10.69,15.65 -20.22,7.86 -185.19,2.03 -222.16,2.01l-168.76 -0.68c-5.01,-0.65 -17.39,-3.48 -23.08,-5.8 -10.93,-4.44 -5.46,-6.36 -17.55,-7.69 3.16,3.88 5.55,6.11 8.86,10.3 6.84,8.65 2,6.42 12.53,11.86 14.32,-4.85 23.32,13.68 35.43,28.96l47.11 61.5c2.98,5.93 -4.68,-6.91 1.95,3.8 16.82,27.15 24.92,29.52 31.66,43.03 10.92,21.9 13.62,11.92 31.33,43.24l9.41 13.36c5.5,11.34 -2.41,6.75 11.02,15.47 1.5,5.07 2.1,-1.35 -0.44,1.23l-3.62 3.21c5.63,3.27 50.36,70.89 70.4,77.52 10.8,3.58 -4.03,-2.24 6.31,1.18l8.08 3.58 72.95 -99.67c15.69,-27.76 51.61,-92.59 60.31,-117.57 14.33,-41.1 19.17,-43.32 32.68,-84.59l8.62 -0.62z"/>
   <path class="fil3" d="M1904.64 2405.22c2.29,19.86 41.76,107.27 52.58,129.08 19.09,38.49 91.32,165.02 128.13,184.5 9.5,-6.36 35.73,-43.42 47.55,-58.57l200.4 -265.51 0.38 -1.69c-16.18,4.98 -53.42,59.7 -64.62,76.39 -33.33,49.63 -82.32,109.56 -120.54,157.41l-46.09 57.34c-26.73,33.44 -46.44,-7.41 -73.44,-46.9l-32.68 -51.02c-9.3,-19.56 2.83,-11.16 -10.06,-23.3l-5.79 -6.11c-37.58,-42.85 -2.96,-29.42 -38.64,-87.89 -6.01,-9.84 -11.53,-16.63 -11.38,-26.85 0.02,-1.15 7.06,-6.93 0.58,-2.06 -6.31,-7.59 -20.87,-21.77 -17.24,-34.69l-9.15 -0.14z"/>
   <path class="fil3" d="M3348.77 2403.33l242.51 315.47c17.42,-11.66 43.84,-49.6 57.4,-68.8l59.26 -98.48c35.96,-72.48 36.73,-80.96 64.05,-154.56l-8.62 0.62c-13.51,41.27 -18.35,43.49 -32.68,84.59 -8.71,24.97 -44.62,89.81 -60.31,117.57l-72.95 99.67 -8.08 -3.58c-10.34,-3.42 4.49,2.4 -6.31,-1.18 -20.04,-6.63 -64.76,-74.25 -70.4,-77.52l3.62 -3.21c2.54,-2.58 1.94,3.84 0.44,-1.23 -13.43,-8.72 -5.52,-4.13 -11.02,-15.47l-9.41 -13.36c-17.71,-31.32 -20.41,-21.34 -31.33,-43.24 -6.74,-13.52 -14.84,-15.88 -31.66,-43.03 -6.64,-10.72 1.03,2.13 -1.95,-3.8l-47.11 -61.5c-12.12,-15.28 -21.11,-33.81 -35.43,-28.96z"/>
  </g>
 </g>
</svg>
